<?xml version="1.0" encoding="UTF-8"?>
<!DOCTYPE svg PUBLIC "-//W3C//DTD SVG 1.1//EN" "http://www.w3.org/Graphics/SVG/1.1/DTD/svg11.dtd">
<svg
  xmlns="http://www.w3.org/2000/svg"
  xmlns:xlink="http://www.w3.org/1999/xlink"
  xml:space="preserve"
  width="3.16944in"
  height="2.68774in"
  version="1.1"
  style="shape-rendering:geometricPrecision; text-rendering:geometricPrecision; image-rendering:optimizeQuality; fill-rule:evenodd; clip-rule:evenodd"
  viewBox="0 0 3169.43 2687.74"
>
  <defs>
    <linearGradient id="gradient" x1="0" x2="0" y1="0" y2="1">
      <stop offset="0%" stop-color="#000" />
      <stop offset="100%" stop-color="#000" />
    </linearGradient>
    <style type="text/css">
      <![CDATA[
        .fill { fill: url(#gradient); }
      ]]>
    </style>
  </defs>
  <g>
    <path
      class="fill"
      d="M215.66 819.09c129.39,-561.07 509.05,-690.98 966.26,-683.67 379.5,-188.28 710.45,-192.79 971.7,66.35 425.79,-122.39 1153.25,660.88 993.19,1147.26 50.62,607.32 -446.07,607.42 -527.99,975.26 -67.14,-183.27 -99.67,-375.91 -74.65,-584.26 -100.32,53 -206.7,83.53 -316.68,100.5 293.89,-233.27 121.13,-602.96 -54.09,-476.8 -133.08,110.28 -284.1,122.43 -489.01,128.19 -372.88,10.47 -184.28,247.77 -1014.04,447.38 -87.99,41.68 -57.95,498.96 -86.92,748.44 -65.24,-769.97 -258.73,-629.15 -388.11,-943.72 -65.18,-18.68 -130.31,-13.11 -195.32,19.49 59.29,-73.39 98.64,-94.66 194.72,-146.85 74.98,-34.68 5.12,-174.47 100.94,-305.34 -89.5,13.3 -158.91,33.4 -214.34,60.08 112.6,-302.29 259.39,-416.46 389.1,-624.69 -67.86,-6.98 -151.56,14.89 -254.76,72.38z"
    />
  </g>
</svg>
